<?xml version="1.0" standalone="yes"?>
<svg xmlns="http://www.w3.org/2000/svg" width="337" height="49">
<path style="stroke:#0c0c0c; fill:none;" d="M6 7L7 21L6 38M70 7L70 38M80 7L80 38M141 7L141 26L142 27L143 34L147 32L160 9L162 13L162 19L163 20L165 36L169 31L176 17L176 15L180 7M228 7L226 12L226 16L225 17L225 21L224 22L224 26L222 31L221 38M30 8L29 21L30 37M254 8L250 19L245 16L240 16L236 18L234 20L232 24L231 28L231 34L235 39L241 39L245 37L249 33L250 29L250 19M39 26L41 19L46 16L51 16L58 25L54 27L39 28L44 39L56 36L57 34M95 16L102 16L108 22L108 32L104 38L100 40L94 39L90 35L89 31L88 27L90 20L95 16M190 16L201 19L200 31L195 38L190 40L188 40L185 39L181 34L181 28L182 24L188 17L190 16M206 38L207 31L209 26L210 20L216 17L217 17L218 16L219 16M210 17L210 18M7 21L29 21M143 34L143 37M248 37L248 38"/>
</svg>
